<mxfile host="app.diagrams.net" modified="2022-06-24T10:17:15.197Z" agent="5.0 (Macintosh; Intel Mac OS X 10_15_7) AppleWebKit/537.36 (KHTML, like Gecko) Chrome/102.0.0.0 Safari/537.36" etag="9YSKwkGym7V6kfyj7Tkd" version="20.0.3" type="github">
  <diagram id="8V1pmPJdVpb9LTOWnaSD" name="Page-1">
    <mxGraphModel dx="1234" dy="696" grid="1" gridSize="10" guides="1" tooltips="1" connect="1" arrows="1" fold="1" page="1" pageScale="1" pageWidth="827" pageHeight="1169" math="0" shadow="0">
      <root>
        <mxCell id="0" />
        <mxCell id="1" parent="0" />
        <mxCell id="kJDg-qp60WF3ea1szEt0-7" value="" style="rounded=0;whiteSpace=wrap;html=1;sketch=1;dashed=1;" parent="1" vertex="1">
          <mxGeometry x="209" y="890" width="381" height="300" as="geometry" />
        </mxCell>
        <mxCell id="kJDg-qp60WF3ea1szEt0-2" value="user-core" style="rounded=1;whiteSpace=wrap;html=1;fillColor=#f8cecc;strokeColor=#b85450;sketch=1;" parent="1" vertex="1">
          <mxGeometry x="240" y="1010" width="306" height="100" as="geometry" />
        </mxCell>
        <mxCell id="xnFeZmKceQ85xTi5FCpg-2" value="" style="rounded=1;whiteSpace=wrap;html=1;" parent="1" vertex="1">
          <mxGeometry x="234.5" y="150" width="495.5" height="380" as="geometry" />
        </mxCell>
        <mxCell id="t-Dlz3Z6XvojqKJS2hRi-21" style="edgeStyle=none;rounded=0;orthogonalLoop=1;jettySize=auto;html=1;exitX=1;exitY=0.5;exitDx=0;exitDy=0;entryX=0;entryY=0.5;entryDx=0;entryDy=0;dashed=1;" edge="1" parent="1" source="xnFeZmKceQ85xTi5FCpg-3" target="xnFeZmKceQ85xTi5FCpg-7">
          <mxGeometry relative="1" as="geometry" />
        </mxCell>
        <mxCell id="t-Dlz3Z6XvojqKJS2hRi-23" style="edgeStyle=none;rounded=0;orthogonalLoop=1;jettySize=auto;html=1;exitX=1;exitY=0.5;exitDx=0;exitDy=0;entryX=0;entryY=0.5;entryDx=0;entryDy=0;dashed=1;" edge="1" parent="1" source="xnFeZmKceQ85xTi5FCpg-3" target="t-Dlz3Z6XvojqKJS2hRi-22">
          <mxGeometry relative="1" as="geometry" />
        </mxCell>
        <mxCell id="xnFeZmKceQ85xTi5FCpg-3" value="User Manage" style="ellipse;whiteSpace=wrap;html=1;sketch=0;strokeWidth=1;" parent="1" vertex="1">
          <mxGeometry x="318.5" y="190" width="112.25" height="80" as="geometry" />
        </mxCell>
        <mxCell id="xnFeZmKceQ85xTi5FCpg-7" value="user login" style="ellipse;whiteSpace=wrap;html=1;sketch=0;" parent="1" vertex="1">
          <mxGeometry x="563" y="170" width="94" height="50" as="geometry" />
        </mxCell>
        <mxCell id="xnFeZmKceQ85xTi5FCpg-16" value="User-Core" style="text;html=1;strokeColor=none;fillColor=none;align=center;verticalAlign=middle;whiteSpace=wrap;rounded=0;" parent="1" vertex="1">
          <mxGeometry x="267.75" y="170" width="60" height="30" as="geometry" />
        </mxCell>
        <mxCell id="kJDg-qp60WF3ea1szEt0-1" value="Web Page" style="rounded=0;whiteSpace=wrap;html=1;fillColor=#e1d5e7;strokeColor=#9673a6;sketch=1;" parent="1" vertex="1">
          <mxGeometry x="240" y="930" width="296" height="50" as="geometry" />
        </mxCell>
        <mxCell id="kJDg-qp60WF3ea1szEt0-4" value="Redis" style="rounded=1;whiteSpace=wrap;html=1;fillColor=#dae8fc;strokeColor=#6c8ebf;sketch=1;" parent="1" vertex="1">
          <mxGeometry x="270" y="1130" width="86" height="50" as="geometry" />
        </mxCell>
        <mxCell id="kJDg-qp60WF3ea1szEt0-8" value="MySQL" style="rounded=1;whiteSpace=wrap;html=1;fillColor=#dae8fc;strokeColor=#6c8ebf;sketch=1;" parent="1" vertex="1">
          <mxGeometry x="380" y="1130" width="86" height="50" as="geometry" />
        </mxCell>
        <mxCell id="IfjscKfoYPz0y6WtnGRc-8" style="edgeStyle=none;rounded=0;orthogonalLoop=1;jettySize=auto;html=1;exitX=0.5;exitY=1;exitDx=0;exitDy=0;entryX=0.5;entryY=0;entryDx=0;entryDy=0;startArrow=none;" parent="1" source="IfjscKfoYPz0y6WtnGRc-9" target="IfjscKfoYPz0y6WtnGRc-2" edge="1">
          <mxGeometry relative="1" as="geometry" />
        </mxCell>
        <mxCell id="IfjscKfoYPz0y6WtnGRc-10" style="edgeStyle=none;rounded=0;orthogonalLoop=1;jettySize=auto;html=1;exitX=0.75;exitY=1;exitDx=0;exitDy=0;entryX=0.75;entryY=0;entryDx=0;entryDy=0;" parent="1" source="IfjscKfoYPz0y6WtnGRc-1" target="IfjscKfoYPz0y6WtnGRc-2" edge="1">
          <mxGeometry relative="1" as="geometry" />
        </mxCell>
        <mxCell id="IfjscKfoYPz0y6WtnGRc-12" style="edgeStyle=none;rounded=0;orthogonalLoop=1;jettySize=auto;html=1;exitX=0.125;exitY=1;exitDx=0;exitDy=0;entryX=0.131;entryY=-0.017;entryDx=0;entryDy=0;exitPerimeter=0;entryPerimeter=0;" parent="1" source="IfjscKfoYPz0y6WtnGRc-1" target="IfjscKfoYPz0y6WtnGRc-2" edge="1">
          <mxGeometry relative="1" as="geometry" />
        </mxCell>
        <mxCell id="IfjscKfoYPz0y6WtnGRc-1" value="Web Page" style="rounded=0;whiteSpace=wrap;html=1;fillColor=#e1d5e7;strokeColor=#9673a6;sketch=1;" parent="1" vertex="1">
          <mxGeometry x="120" y="1280" width="480" height="60" as="geometry" />
        </mxCell>
        <mxCell id="IfjscKfoYPz0y6WtnGRc-22" style="edgeStyle=none;rounded=0;orthogonalLoop=1;jettySize=auto;html=1;exitX=0.75;exitY=1;exitDx=0;exitDy=0;entryX=0.663;entryY=0.02;entryDx=0;entryDy=0;entryPerimeter=0;" parent="1" source="IfjscKfoYPz0y6WtnGRc-2" target="IfjscKfoYPz0y6WtnGRc-21" edge="1">
          <mxGeometry relative="1" as="geometry" />
        </mxCell>
        <mxCell id="IfjscKfoYPz0y6WtnGRc-24" style="edgeStyle=none;rounded=0;orthogonalLoop=1;jettySize=auto;html=1;exitX=0.25;exitY=1;exitDx=0;exitDy=0;" parent="1" source="IfjscKfoYPz0y6WtnGRc-2" target="IfjscKfoYPz0y6WtnGRc-23" edge="1">
          <mxGeometry relative="1" as="geometry" />
        </mxCell>
        <mxCell id="IfjscKfoYPz0y6WtnGRc-2" value="user-core" style="rounded=1;whiteSpace=wrap;html=1;fillColor=#f8cecc;strokeColor=#b85450;sketch=1;" parent="1" vertex="1">
          <mxGeometry x="120" y="1440" width="480" height="120" as="geometry" />
        </mxCell>
        <mxCell id="IfjscKfoYPz0y6WtnGRc-9" value="download&lt;br&gt;account info" style="text;html=1;strokeColor=none;fillColor=none;align=center;verticalAlign=middle;whiteSpace=wrap;rounded=0;" parent="1" vertex="1">
          <mxGeometry x="331" y="1380" width="56" height="20" as="geometry" />
        </mxCell>
        <mxCell id="IfjscKfoYPz0y6WtnGRc-11" value="" style="edgeStyle=none;rounded=0;orthogonalLoop=1;jettySize=auto;html=1;exitX=0.5;exitY=1;exitDx=0;exitDy=0;entryX=0.5;entryY=0;entryDx=0;entryDy=0;endArrow=none;" parent="1" source="IfjscKfoYPz0y6WtnGRc-1" target="IfjscKfoYPz0y6WtnGRc-9" edge="1">
          <mxGeometry relative="1" as="geometry">
            <mxPoint x="360" y="1340" as="sourcePoint" />
            <mxPoint x="360" y="1440" as="targetPoint" />
          </mxGeometry>
        </mxCell>
        <mxCell id="IfjscKfoYPz0y6WtnGRc-13" style="edgeStyle=none;rounded=0;orthogonalLoop=1;jettySize=auto;html=1;exitX=0.25;exitY=1;exitDx=0;exitDy=0;entryX=0.25;entryY=0;entryDx=0;entryDy=0;" parent="1" edge="1">
          <mxGeometry relative="1" as="geometry">
            <mxPoint x="280" y="1340" as="sourcePoint" />
            <mxPoint x="280" y="1440" as="targetPoint" />
          </mxGeometry>
        </mxCell>
        <mxCell id="IfjscKfoYPz0y6WtnGRc-14" value="login" style="text;html=1;strokeColor=none;fillColor=none;align=center;verticalAlign=middle;whiteSpace=wrap;rounded=0;" parent="1" vertex="1">
          <mxGeometry x="150" y="1375" width="59" height="25" as="geometry" />
        </mxCell>
        <mxCell id="IfjscKfoYPz0y6WtnGRc-16" value="edit info" style="text;html=1;strokeColor=none;fillColor=none;align=center;verticalAlign=middle;whiteSpace=wrap;rounded=0;" parent="1" vertex="1">
          <mxGeometry x="250" y="1377.5" width="59" height="25" as="geometry" />
        </mxCell>
        <mxCell id="IfjscKfoYPz0y6WtnGRc-18" value="query account info" style="text;html=1;strokeColor=none;fillColor=none;align=center;verticalAlign=middle;whiteSpace=wrap;rounded=0;" parent="1" vertex="1">
          <mxGeometry x="440" y="1380" width="69" height="22.5" as="geometry" />
        </mxCell>
        <mxCell id="IfjscKfoYPz0y6WtnGRc-19" value="upload account info" style="text;html=1;strokeColor=none;fillColor=none;align=center;verticalAlign=middle;whiteSpace=wrap;rounded=0;" parent="1" vertex="1">
          <mxGeometry x="521" y="1375" width="70" height="25" as="geometry" />
        </mxCell>
        <mxCell id="IfjscKfoYPz0y6WtnGRc-20" style="edgeStyle=none;rounded=0;orthogonalLoop=1;jettySize=auto;html=1;exitX=0.75;exitY=1;exitDx=0;exitDy=0;entryX=0.75;entryY=0;entryDx=0;entryDy=0;" parent="1" edge="1">
          <mxGeometry relative="1" as="geometry">
            <mxPoint x="560" y="1340" as="sourcePoint" />
            <mxPoint x="560" y="1440" as="targetPoint" />
          </mxGeometry>
        </mxCell>
        <mxCell id="IfjscKfoYPz0y6WtnGRc-21" value="MySQL" style="rounded=1;whiteSpace=wrap;html=1;fillColor=#dae8fc;strokeColor=#6c8ebf;sketch=1;" parent="1" vertex="1">
          <mxGeometry x="423" y="1640" width="86" height="50" as="geometry" />
        </mxCell>
        <mxCell id="IfjscKfoYPz0y6WtnGRc-23" value="Redis" style="rounded=1;whiteSpace=wrap;html=1;fillColor=#dae8fc;strokeColor=#6c8ebf;sketch=1;" parent="1" vertex="1">
          <mxGeometry x="200" y="1640" width="86" height="50" as="geometry" />
        </mxCell>
        <mxCell id="IfjscKfoYPz0y6WtnGRc-26" value="cache" style="text;html=1;strokeColor=none;fillColor=none;align=center;verticalAlign=middle;whiteSpace=wrap;rounded=0;" parent="1" vertex="1">
          <mxGeometry x="209" y="1580" width="59" height="25" as="geometry" />
        </mxCell>
        <mxCell id="IfjscKfoYPz0y6WtnGRc-28" value="save" style="text;html=1;strokeColor=none;fillColor=none;align=center;verticalAlign=middle;whiteSpace=wrap;rounded=0;" parent="1" vertex="1">
          <mxGeometry x="450" y="1580" width="59" height="25" as="geometry" />
        </mxCell>
        <mxCell id="IfjscKfoYPz0y6WtnGRc-34" style="edgeStyle=none;rounded=0;orthogonalLoop=1;jettySize=auto;html=1;exitX=0.75;exitY=0;exitDx=0;exitDy=0;entryX=0.5;entryY=1;entryDx=0;entryDy=0;" parent="1" source="IfjscKfoYPz0y6WtnGRc-30" target="IfjscKfoYPz0y6WtnGRc-32" edge="1">
          <mxGeometry relative="1" as="geometry" />
        </mxCell>
        <mxCell id="IfjscKfoYPz0y6WtnGRc-36" style="edgeStyle=none;rounded=0;orthogonalLoop=1;jettySize=auto;html=1;exitX=0.5;exitY=0;exitDx=0;exitDy=0;entryX=1;entryY=1;entryDx=0;entryDy=0;" parent="1" source="IfjscKfoYPz0y6WtnGRc-30" target="IfjscKfoYPz0y6WtnGRc-33" edge="1">
          <mxGeometry relative="1" as="geometry" />
        </mxCell>
        <mxCell id="IfjscKfoYPz0y6WtnGRc-37" style="edgeStyle=none;rounded=0;orthogonalLoop=1;jettySize=auto;html=1;exitX=0;exitY=0;exitDx=0;exitDy=0;" parent="1" source="IfjscKfoYPz0y6WtnGRc-30" target="IfjscKfoYPz0y6WtnGRc-35" edge="1">
          <mxGeometry relative="1" as="geometry" />
        </mxCell>
        <mxCell id="IfjscKfoYPz0y6WtnGRc-39" style="edgeStyle=none;rounded=0;orthogonalLoop=1;jettySize=auto;html=1;exitX=0;exitY=0.75;exitDx=0;exitDy=0;entryX=0.75;entryY=0.02;entryDx=0;entryDy=0;entryPerimeter=0;" parent="1" source="IfjscKfoYPz0y6WtnGRc-30" target="IfjscKfoYPz0y6WtnGRc-38" edge="1">
          <mxGeometry relative="1" as="geometry" />
        </mxCell>
        <mxCell id="IfjscKfoYPz0y6WtnGRc-41" style="edgeStyle=none;rounded=0;orthogonalLoop=1;jettySize=auto;html=1;exitX=0.25;exitY=1;exitDx=0;exitDy=0;" parent="1" source="IfjscKfoYPz0y6WtnGRc-30" target="IfjscKfoYPz0y6WtnGRc-40" edge="1">
          <mxGeometry relative="1" as="geometry" />
        </mxCell>
        <mxCell id="IfjscKfoYPz0y6WtnGRc-44" style="edgeStyle=none;rounded=0;orthogonalLoop=1;jettySize=auto;html=1;exitX=1;exitY=0.5;exitDx=0;exitDy=0;endArrow=none;endFill=0;" parent="1" source="IfjscKfoYPz0y6WtnGRc-30" target="IfjscKfoYPz0y6WtnGRc-31" edge="1">
          <mxGeometry relative="1" as="geometry" />
        </mxCell>
        <mxCell id="IfjscKfoYPz0y6WtnGRc-53" style="edgeStyle=none;rounded=0;orthogonalLoop=1;jettySize=auto;html=1;exitX=0.75;exitY=1;exitDx=0;exitDy=0;entryX=0.25;entryY=0;entryDx=0;entryDy=0;entryPerimeter=0;endArrow=classic;endFill=1;" parent="1" source="IfjscKfoYPz0y6WtnGRc-30" target="IfjscKfoYPz0y6WtnGRc-52" edge="1">
          <mxGeometry relative="1" as="geometry" />
        </mxCell>
        <mxCell id="IfjscKfoYPz0y6WtnGRc-30" value="t_user" style="rounded=1;whiteSpace=wrap;html=1;fillColor=#dae8fc;strokeColor=#6c8ebf;sketch=1;" parent="1" vertex="1">
          <mxGeometry x="170" y="1920" width="100" height="50" as="geometry" />
        </mxCell>
        <mxCell id="IfjscKfoYPz0y6WtnGRc-43" style="edgeStyle=none;rounded=0;orthogonalLoop=1;jettySize=auto;html=1;exitX=1;exitY=0;exitDx=0;exitDy=0;entryX=0.5;entryY=1;entryDx=0;entryDy=0;" parent="1" source="IfjscKfoYPz0y6WtnGRc-31" target="IfjscKfoYPz0y6WtnGRc-42" edge="1">
          <mxGeometry relative="1" as="geometry" />
        </mxCell>
        <mxCell id="IfjscKfoYPz0y6WtnGRc-50" style="edgeStyle=none;rounded=0;orthogonalLoop=1;jettySize=auto;html=1;exitX=1;exitY=0.5;exitDx=0;exitDy=0;entryX=0;entryY=0.5;entryDx=0;entryDy=0;endArrow=classic;endFill=1;" parent="1" source="IfjscKfoYPz0y6WtnGRc-31" target="IfjscKfoYPz0y6WtnGRc-48" edge="1">
          <mxGeometry relative="1" as="geometry" />
        </mxCell>
        <mxCell id="IfjscKfoYPz0y6WtnGRc-55" style="edgeStyle=none;rounded=0;orthogonalLoop=1;jettySize=auto;html=1;exitX=0.75;exitY=1;exitDx=0;exitDy=0;entryX=0.5;entryY=0;entryDx=0;entryDy=0;endArrow=classic;endFill=1;" parent="1" source="IfjscKfoYPz0y6WtnGRc-31" target="IfjscKfoYPz0y6WtnGRc-54" edge="1">
          <mxGeometry relative="1" as="geometry" />
        </mxCell>
        <mxCell id="IfjscKfoYPz0y6WtnGRc-31" value="t_account" style="rounded=1;whiteSpace=wrap;html=1;fillColor=#dae8fc;strokeColor=#6c8ebf;sketch=1;" parent="1" vertex="1">
          <mxGeometry x="466" y="1920" width="100" height="50" as="geometry" />
        </mxCell>
        <mxCell id="IfjscKfoYPz0y6WtnGRc-32" value="user_id" style="ellipse;whiteSpace=wrap;html=1;fillColor=#e1d5e7;strokeColor=#9673a6;sketch=1;" parent="1" vertex="1">
          <mxGeometry x="229" y="1810" width="80" height="50" as="geometry" />
        </mxCell>
        <mxCell id="IfjscKfoYPz0y6WtnGRc-33" value="username" style="ellipse;whiteSpace=wrap;html=1;fillColor=#e1d5e7;strokeColor=#9673a6;sketch=1;" parent="1" vertex="1">
          <mxGeometry x="120" y="1810" width="80" height="50" as="geometry" />
        </mxCell>
        <mxCell id="IfjscKfoYPz0y6WtnGRc-35" value="password" style="ellipse;whiteSpace=wrap;html=1;fillColor=#e1d5e7;strokeColor=#9673a6;sketch=1;" parent="1" vertex="1">
          <mxGeometry x="50" y="1890" width="80" height="50" as="geometry" />
        </mxCell>
        <mxCell id="IfjscKfoYPz0y6WtnGRc-38" value="nickname" style="ellipse;whiteSpace=wrap;html=1;fillColor=#e1d5e7;strokeColor=#9673a6;sketch=1;" parent="1" vertex="1">
          <mxGeometry x="50" y="2000" width="80" height="50" as="geometry" />
        </mxCell>
        <mxCell id="IfjscKfoYPz0y6WtnGRc-40" value="pic_url" style="ellipse;whiteSpace=wrap;html=1;fillColor=#e1d5e7;strokeColor=#9673a6;sketch=1;" parent="1" vertex="1">
          <mxGeometry x="139.5" y="2020" width="80" height="50" as="geometry" />
        </mxCell>
        <mxCell id="IfjscKfoYPz0y6WtnGRc-42" value="account_num" style="ellipse;whiteSpace=wrap;html=1;fillColor=#e1d5e7;strokeColor=#9673a6;sketch=1;" parent="1" vertex="1">
          <mxGeometry x="536" y="1820" width="120" height="50" as="geometry" />
        </mxCell>
        <mxCell id="IfjscKfoYPz0y6WtnGRc-45" value="1" style="text;html=1;strokeColor=none;fillColor=none;align=center;verticalAlign=middle;whiteSpace=wrap;rounded=0;" parent="1" vertex="1">
          <mxGeometry x="276.5" y="1910" width="47" height="20" as="geometry" />
        </mxCell>
        <mxCell id="IfjscKfoYPz0y6WtnGRc-46" value="&lt;b&gt;*&lt;/b&gt;" style="text;html=1;strokeColor=none;fillColor=none;align=center;verticalAlign=middle;whiteSpace=wrap;rounded=0;" parent="1" vertex="1">
          <mxGeometry x="410" y="1910" width="47" height="20" as="geometry" />
        </mxCell>
        <mxCell id="IfjscKfoYPz0y6WtnGRc-48" value="account_name" style="ellipse;whiteSpace=wrap;html=1;fillColor=#e1d5e7;strokeColor=#9673a6;sketch=1;" parent="1" vertex="1">
          <mxGeometry x="640" y="1910" width="110" height="50" as="geometry" />
        </mxCell>
        <mxCell id="IfjscKfoYPz0y6WtnGRc-52" value="gender" style="ellipse;whiteSpace=wrap;html=1;fillColor=#e1d5e7;strokeColor=#9673a6;sketch=1;" parent="1" vertex="1">
          <mxGeometry x="243.5" y="2020" width="80" height="50" as="geometry" />
        </mxCell>
        <mxCell id="IfjscKfoYPz0y6WtnGRc-54" value="user_id" style="ellipse;whiteSpace=wrap;html=1;fillColor=#e1d5e7;strokeColor=#9673a6;sketch=1;" parent="1" vertex="1">
          <mxGeometry x="550" y="2020" width="80" height="50" as="geometry" />
        </mxCell>
        <mxCell id="IfjscKfoYPz0y6WtnGRc-58" style="edgeStyle=none;rounded=0;orthogonalLoop=1;jettySize=auto;html=1;exitX=0.5;exitY=1;exitDx=0;exitDy=0;entryX=0.5;entryY=0;entryDx=0;entryDy=0;endArrow=classic;endFill=1;" parent="1" source="IfjscKfoYPz0y6WtnGRc-56" target="IfjscKfoYPz0y6WtnGRc-57" edge="1">
          <mxGeometry relative="1" as="geometry" />
        </mxCell>
        <mxCell id="IfjscKfoYPz0y6WtnGRc-56" value="begin" style="ellipse;whiteSpace=wrap;html=1;sketch=1;fillColor=#dae8fc;strokeColor=#6c8ebf;" parent="1" vertex="1">
          <mxGeometry x="148" y="2150" width="102" height="50" as="geometry" />
        </mxCell>
        <mxCell id="IfjscKfoYPz0y6WtnGRc-63" value="" style="edgeStyle=none;rounded=0;orthogonalLoop=1;jettySize=auto;html=1;endArrow=classic;endFill=1;" parent="1" source="IfjscKfoYPz0y6WtnGRc-57" edge="1">
          <mxGeometry relative="1" as="geometry">
            <mxPoint x="200.5" y="2320" as="targetPoint" />
          </mxGeometry>
        </mxCell>
        <mxCell id="IfjscKfoYPz0y6WtnGRc-57" value="query account info request" style="rounded=0;whiteSpace=wrap;html=1;sketch=1;fillColor=#f8cecc;strokeColor=#b85450;" parent="1" vertex="1">
          <mxGeometry x="130" y="2230" width="141" height="60" as="geometry" />
        </mxCell>
        <mxCell id="IfjscKfoYPz0y6WtnGRc-60" value="" style="rhombus;whiteSpace=wrap;html=1;sketch=1;" parent="1" vertex="1">
          <mxGeometry x="359.5" y="2005" width="80" height="80" as="geometry" />
        </mxCell>
        <mxCell id="t-Dlz3Z6XvojqKJS2hRi-1" style="edgeStyle=orthogonalEdgeStyle;rounded=0;orthogonalLoop=1;jettySize=auto;html=1;exitX=0.5;exitY=1;exitDx=0;exitDy=0;entryX=0.5;entryY=0;entryDx=0;entryDy=0;" edge="1" parent="1" source="IfjscKfoYPz0y6WtnGRc-61" target="IfjscKfoYPz0y6WtnGRc-69">
          <mxGeometry relative="1" as="geometry" />
        </mxCell>
        <mxCell id="t-Dlz3Z6XvojqKJS2hRi-3" style="edgeStyle=orthogonalEdgeStyle;rounded=0;orthogonalLoop=1;jettySize=auto;html=1;exitX=1;exitY=0.5;exitDx=0;exitDy=0;entryX=0;entryY=0.5;entryDx=0;entryDy=0;" edge="1" parent="1" source="IfjscKfoYPz0y6WtnGRc-61" target="t-Dlz3Z6XvojqKJS2hRi-2">
          <mxGeometry relative="1" as="geometry" />
        </mxCell>
        <mxCell id="IfjscKfoYPz0y6WtnGRc-61" value="Is the token right？" style="rhombus;whiteSpace=wrap;html=1;sketch=1;fillColor=#ffe6cc;strokeColor=#d79b00;" parent="1" vertex="1">
          <mxGeometry x="140.75" y="2320" width="119.5" height="90" as="geometry" />
        </mxCell>
        <mxCell id="IfjscKfoYPz0y6WtnGRc-69" value="end" style="ellipse;whiteSpace=wrap;html=1;sketch=1;fillColor=#dae8fc;strokeColor=#6c8ebf;" parent="1" vertex="1">
          <mxGeometry x="150" y="2490" width="102" height="50" as="geometry" />
        </mxCell>
        <mxCell id="IfjscKfoYPz0y6WtnGRc-75" value="" style="shape=umlActor;verticalLabelPosition=bottom;verticalAlign=top;html=1;sketch=1;strokeWidth=1;fillColor=#f5f5f5;fontColor=#333333;strokeColor=#666666;" parent="1" vertex="1">
          <mxGeometry x="134" y="2680" width="52" height="50" as="geometry" />
        </mxCell>
        <mxCell id="IfjscKfoYPz0y6WtnGRc-78" value="" style="endArrow=none;dashed=1;html=1;strokeWidth=1;rounded=0;" parent="1" target="IfjscKfoYPz0y6WtnGRc-75" edge="1">
          <mxGeometry width="50" height="50" relative="1" as="geometry">
            <mxPoint x="160" y="2970" as="sourcePoint" />
            <mxPoint x="190" y="2770" as="targetPoint" />
          </mxGeometry>
        </mxCell>
        <mxCell id="IfjscKfoYPz0y6WtnGRc-80" style="edgeStyle=orthogonalEdgeStyle;rounded=0;orthogonalLoop=1;jettySize=auto;html=1;endArrow=none;endFill=0;dashed=1;strokeWidth=1;startArrow=none;" parent="1" source="IfjscKfoYPz0y6WtnGRc-90" edge="1">
          <mxGeometry relative="1" as="geometry">
            <mxPoint x="358.9999999999998" y="2960" as="targetPoint" />
          </mxGeometry>
        </mxCell>
        <mxCell id="IfjscKfoYPz0y6WtnGRc-79" value="User-core" style="ellipse;shape=umlControl;whiteSpace=wrap;html=1;sketch=0;fillColor=#ffe6cc;strokeColor=#d79b00;" parent="1" vertex="1">
          <mxGeometry x="318.5" y="2670" width="81" height="50" as="geometry" />
        </mxCell>
        <mxCell id="IfjscKfoYPz0y6WtnGRc-81" value="MySQL" style="ellipse;shape=umlEntity;whiteSpace=wrap;html=1;sketch=0;strokeWidth=1;fillColor=#dae8fc;strokeColor=#6c8ebf;" parent="1" vertex="1">
          <mxGeometry x="520" y="2680" width="80" height="40" as="geometry" />
        </mxCell>
        <mxCell id="IfjscKfoYPz0y6WtnGRc-82" style="edgeStyle=orthogonalEdgeStyle;rounded=0;orthogonalLoop=1;jettySize=auto;html=1;endArrow=none;endFill=0;dashed=1;strokeWidth=1;startArrow=none;" parent="1" source="IfjscKfoYPz0y6WtnGRc-87" edge="1">
          <mxGeometry relative="1" as="geometry">
            <mxPoint x="559.6599999999997" y="2960" as="targetPoint" />
            <mxPoint x="559.6599999999997" y="2720" as="sourcePoint" />
          </mxGeometry>
        </mxCell>
        <mxCell id="IfjscKfoYPz0y6WtnGRc-83" value="" style="endArrow=classic;html=1;rounded=0;strokeWidth=1;" parent="1" edge="1">
          <mxGeometry width="50" height="50" relative="1" as="geometry">
            <mxPoint x="160" y="2760" as="sourcePoint" />
            <mxPoint x="360" y="2760" as="targetPoint" />
          </mxGeometry>
        </mxCell>
        <mxCell id="IfjscKfoYPz0y6WtnGRc-84" value="User download account info" style="text;html=1;strokeColor=none;fillColor=none;align=center;verticalAlign=middle;whiteSpace=wrap;rounded=0;sketch=1;" parent="1" vertex="1">
          <mxGeometry x="186" y="2720" width="154" height="30" as="geometry" />
        </mxCell>
        <mxCell id="IfjscKfoYPz0y6WtnGRc-85" value="" style="html=1;points=[];perimeter=orthogonalPerimeter;sketch=1;strokeWidth=1;" parent="1" vertex="1">
          <mxGeometry x="354" y="2760" width="10" height="50" as="geometry" />
        </mxCell>
        <mxCell id="IfjscKfoYPz0y6WtnGRc-86" value="" style="edgeStyle=orthogonalEdgeStyle;rounded=0;orthogonalLoop=1;jettySize=auto;html=1;endArrow=none;endFill=0;dashed=1;strokeWidth=1;" parent="1" source="IfjscKfoYPz0y6WtnGRc-79" target="IfjscKfoYPz0y6WtnGRc-85" edge="1">
          <mxGeometry relative="1" as="geometry">
            <mxPoint x="358.9999999999998" y="2960" as="targetPoint" />
            <mxPoint x="358.9999999999998" y="2720" as="sourcePoint" />
          </mxGeometry>
        </mxCell>
        <mxCell id="IfjscKfoYPz0y6WtnGRc-87" value="" style="html=1;points=[];perimeter=orthogonalPerimeter;sketch=1;strokeWidth=1;" parent="1" vertex="1">
          <mxGeometry x="554.5" y="2810" width="10" height="47" as="geometry" />
        </mxCell>
        <mxCell id="IfjscKfoYPz0y6WtnGRc-88" value="" style="edgeStyle=orthogonalEdgeStyle;rounded=0;orthogonalLoop=1;jettySize=auto;html=1;endArrow=none;endFill=0;dashed=1;strokeWidth=1;" parent="1" target="IfjscKfoYPz0y6WtnGRc-87" edge="1">
          <mxGeometry relative="1" as="geometry">
            <mxPoint x="559.6599999999999" y="2960" as="targetPoint" />
            <mxPoint x="559.6599999999999" y="2720" as="sourcePoint" />
          </mxGeometry>
        </mxCell>
        <mxCell id="IfjscKfoYPz0y6WtnGRc-89" value="" style="endArrow=classic;html=1;rounded=0;strokeWidth=1;" parent="1" edge="1">
          <mxGeometry width="50" height="50" relative="1" as="geometry">
            <mxPoint x="364.0000000000001" y="2810" as="sourcePoint" />
            <mxPoint x="560" y="2810" as="targetPoint" />
          </mxGeometry>
        </mxCell>
        <mxCell id="IfjscKfoYPz0y6WtnGRc-90" value="" style="html=1;points=[];perimeter=orthogonalPerimeter;sketch=1;strokeWidth=1;" parent="1" vertex="1">
          <mxGeometry x="354" y="2860" width="10" height="47" as="geometry" />
        </mxCell>
        <mxCell id="IfjscKfoYPz0y6WtnGRc-91" value="" style="edgeStyle=orthogonalEdgeStyle;rounded=0;orthogonalLoop=1;jettySize=auto;html=1;endArrow=none;endFill=0;dashed=1;strokeWidth=1;startArrow=none;" parent="1" source="IfjscKfoYPz0y6WtnGRc-85" target="IfjscKfoYPz0y6WtnGRc-90" edge="1">
          <mxGeometry relative="1" as="geometry">
            <mxPoint x="358.9999999999998" y="2960" as="targetPoint" />
            <mxPoint x="358.9999999999998" y="2810" as="sourcePoint" />
          </mxGeometry>
        </mxCell>
        <mxCell id="IfjscKfoYPz0y6WtnGRc-92" value="" style="endArrow=classic;html=1;rounded=0;strokeWidth=1;entryX=1.224;entryY=0.103;entryDx=0;entryDy=0;entryPerimeter=0;" parent="1" target="IfjscKfoYPz0y6WtnGRc-90" edge="1">
          <mxGeometry width="50" height="50" relative="1" as="geometry">
            <mxPoint x="560" y="2860" as="sourcePoint" />
            <mxPoint x="450" y="2850" as="targetPoint" />
          </mxGeometry>
        </mxCell>
        <mxCell id="IfjscKfoYPz0y6WtnGRc-93" value="" style="endArrow=classic;html=1;rounded=0;strokeWidth=1;exitX=0.19;exitY=1.056;exitDx=0;exitDy=0;exitPerimeter=0;" parent="1" source="IfjscKfoYPz0y6WtnGRc-90" edge="1">
          <mxGeometry width="50" height="50" relative="1" as="geometry">
            <mxPoint x="350" y="2910" as="sourcePoint" />
            <mxPoint x="160" y="2910" as="targetPoint" />
          </mxGeometry>
        </mxCell>
        <mxCell id="IfjscKfoYPz0y6WtnGRc-95" value="query from DB" style="text;html=1;strokeColor=none;fillColor=none;align=center;verticalAlign=middle;whiteSpace=wrap;rounded=0;sketch=1;" parent="1" vertex="1">
          <mxGeometry x="390" y="2780" width="140" height="30" as="geometry" />
        </mxCell>
        <mxCell id="IfjscKfoYPz0y6WtnGRc-96" value="" style="shape=umlActor;verticalLabelPosition=bottom;verticalAlign=top;html=1;sketch=1;strokeWidth=1;fillColor=#f5f5f5;fontColor=#333333;strokeColor=#666666;" parent="1" vertex="1">
          <mxGeometry x="130" y="3020" width="52" height="50" as="geometry" />
        </mxCell>
        <mxCell id="IfjscKfoYPz0y6WtnGRc-97" value="" style="endArrow=none;dashed=1;html=1;strokeWidth=1;rounded=0;" parent="1" target="IfjscKfoYPz0y6WtnGRc-96" edge="1">
          <mxGeometry width="50" height="50" relative="1" as="geometry">
            <mxPoint x="156.0000000000001" y="3310" as="sourcePoint" />
            <mxPoint x="186" y="3110" as="targetPoint" />
          </mxGeometry>
        </mxCell>
        <mxCell id="IfjscKfoYPz0y6WtnGRc-98" style="edgeStyle=orthogonalEdgeStyle;rounded=0;orthogonalLoop=1;jettySize=auto;html=1;endArrow=none;endFill=0;dashed=1;strokeWidth=1;startArrow=none;" parent="1" source="IfjscKfoYPz0y6WtnGRc-109" edge="1">
          <mxGeometry relative="1" as="geometry">
            <mxPoint x="354.9999999999998" y="3300" as="targetPoint" />
          </mxGeometry>
        </mxCell>
        <mxCell id="IfjscKfoYPz0y6WtnGRc-99" value="User-core" style="ellipse;shape=umlControl;whiteSpace=wrap;html=1;sketch=0;fillColor=#ffe6cc;strokeColor=#d79b00;" parent="1" vertex="1">
          <mxGeometry x="314.5" y="3010" width="81" height="50" as="geometry" />
        </mxCell>
        <mxCell id="IfjscKfoYPz0y6WtnGRc-100" value="MySQL" style="ellipse;shape=umlEntity;whiteSpace=wrap;html=1;sketch=0;strokeWidth=1;fillColor=#dae8fc;strokeColor=#6c8ebf;" parent="1" vertex="1">
          <mxGeometry x="516" y="3020" width="80" height="40" as="geometry" />
        </mxCell>
        <mxCell id="IfjscKfoYPz0y6WtnGRc-101" style="edgeStyle=orthogonalEdgeStyle;rounded=0;orthogonalLoop=1;jettySize=auto;html=1;endArrow=none;endFill=0;dashed=1;strokeWidth=1;startArrow=none;" parent="1" source="IfjscKfoYPz0y6WtnGRc-106" edge="1">
          <mxGeometry relative="1" as="geometry">
            <mxPoint x="555.6599999999999" y="3300" as="targetPoint" />
            <mxPoint x="555.6599999999997" y="3060" as="sourcePoint" />
          </mxGeometry>
        </mxCell>
        <mxCell id="IfjscKfoYPz0y6WtnGRc-102" value="" style="endArrow=classic;html=1;rounded=0;strokeWidth=1;" parent="1" edge="1">
          <mxGeometry width="50" height="50" relative="1" as="geometry">
            <mxPoint x="156.0000000000001" y="3100" as="sourcePoint" />
            <mxPoint x="356" y="3100" as="targetPoint" />
          </mxGeometry>
        </mxCell>
        <mxCell id="IfjscKfoYPz0y6WtnGRc-103" value="query account info" style="text;html=1;strokeColor=none;fillColor=none;align=center;verticalAlign=middle;whiteSpace=wrap;rounded=0;sketch=1;" parent="1" vertex="1">
          <mxGeometry x="182" y="3060" width="140" height="30" as="geometry" />
        </mxCell>
        <mxCell id="IfjscKfoYPz0y6WtnGRc-104" value="" style="html=1;points=[];perimeter=orthogonalPerimeter;sketch=1;strokeWidth=1;" parent="1" vertex="1">
          <mxGeometry x="350" y="3100" width="10" height="50" as="geometry" />
        </mxCell>
        <mxCell id="IfjscKfoYPz0y6WtnGRc-105" value="" style="edgeStyle=orthogonalEdgeStyle;rounded=0;orthogonalLoop=1;jettySize=auto;html=1;endArrow=none;endFill=0;dashed=1;strokeWidth=1;" parent="1" source="IfjscKfoYPz0y6WtnGRc-99" target="IfjscKfoYPz0y6WtnGRc-104" edge="1">
          <mxGeometry relative="1" as="geometry">
            <mxPoint x="354.9999999999998" y="3300" as="targetPoint" />
            <mxPoint x="354.9999999999998" y="3060" as="sourcePoint" />
          </mxGeometry>
        </mxCell>
        <mxCell id="IfjscKfoYPz0y6WtnGRc-106" value="" style="html=1;points=[];perimeter=orthogonalPerimeter;sketch=1;strokeWidth=1;" parent="1" vertex="1">
          <mxGeometry x="550.5" y="3150" width="10" height="47" as="geometry" />
        </mxCell>
        <mxCell id="IfjscKfoYPz0y6WtnGRc-107" value="" style="edgeStyle=orthogonalEdgeStyle;rounded=0;orthogonalLoop=1;jettySize=auto;html=1;endArrow=none;endFill=0;dashed=1;strokeWidth=1;" parent="1" target="IfjscKfoYPz0y6WtnGRc-106" edge="1">
          <mxGeometry relative="1" as="geometry">
            <mxPoint x="555.6599999999999" y="3300" as="targetPoint" />
            <mxPoint x="555.6599999999999" y="3060" as="sourcePoint" />
          </mxGeometry>
        </mxCell>
        <mxCell id="IfjscKfoYPz0y6WtnGRc-108" value="" style="endArrow=classic;html=1;rounded=0;strokeWidth=1;" parent="1" edge="1">
          <mxGeometry width="50" height="50" relative="1" as="geometry">
            <mxPoint x="360" y="3150" as="sourcePoint" />
            <mxPoint x="556" y="3150" as="targetPoint" />
          </mxGeometry>
        </mxCell>
        <mxCell id="IfjscKfoYPz0y6WtnGRc-109" value="" style="html=1;points=[];perimeter=orthogonalPerimeter;sketch=1;strokeWidth=1;" parent="1" vertex="1">
          <mxGeometry x="350" y="3200" width="10" height="47" as="geometry" />
        </mxCell>
        <mxCell id="IfjscKfoYPz0y6WtnGRc-110" value="" style="edgeStyle=orthogonalEdgeStyle;rounded=0;orthogonalLoop=1;jettySize=auto;html=1;endArrow=none;endFill=0;dashed=1;strokeWidth=1;startArrow=none;" parent="1" source="IfjscKfoYPz0y6WtnGRc-104" target="IfjscKfoYPz0y6WtnGRc-109" edge="1">
          <mxGeometry relative="1" as="geometry">
            <mxPoint x="354.9999999999998" y="3300" as="targetPoint" />
            <mxPoint x="354.9999999999998" y="3150" as="sourcePoint" />
          </mxGeometry>
        </mxCell>
        <mxCell id="IfjscKfoYPz0y6WtnGRc-111" value="" style="endArrow=classic;html=1;rounded=0;strokeWidth=1;entryX=1.224;entryY=0.103;entryDx=0;entryDy=0;entryPerimeter=0;" parent="1" target="IfjscKfoYPz0y6WtnGRc-109" edge="1">
          <mxGeometry width="50" height="50" relative="1" as="geometry">
            <mxPoint x="556" y="3200" as="sourcePoint" />
            <mxPoint x="446" y="3190" as="targetPoint" />
          </mxGeometry>
        </mxCell>
        <mxCell id="IfjscKfoYPz0y6WtnGRc-112" value="" style="endArrow=classic;html=1;rounded=0;strokeWidth=1;exitX=0.19;exitY=1.056;exitDx=0;exitDy=0;exitPerimeter=0;" parent="1" source="IfjscKfoYPz0y6WtnGRc-109" edge="1">
          <mxGeometry width="50" height="50" relative="1" as="geometry">
            <mxPoint x="346" y="3250" as="sourcePoint" />
            <mxPoint x="156.0000000000001" y="3250" as="targetPoint" />
          </mxGeometry>
        </mxCell>
        <mxCell id="IfjscKfoYPz0y6WtnGRc-113" value="query from DB" style="text;html=1;strokeColor=none;fillColor=none;align=center;verticalAlign=middle;whiteSpace=wrap;rounded=0;sketch=1;" parent="1" vertex="1">
          <mxGeometry x="386" y="3120" width="140" height="30" as="geometry" />
        </mxCell>
        <mxCell id="IfjscKfoYPz0y6WtnGRc-116" value="" style="shape=umlActor;verticalLabelPosition=bottom;verticalAlign=top;html=1;sketch=1;strokeWidth=1;fillColor=#f5f5f5;fontColor=#333333;strokeColor=#666666;" parent="1" vertex="1">
          <mxGeometry x="134" y="3350" width="52" height="50" as="geometry" />
        </mxCell>
        <mxCell id="IfjscKfoYPz0y6WtnGRc-117" value="" style="endArrow=none;dashed=1;html=1;strokeWidth=1;rounded=0;" parent="1" target="IfjscKfoYPz0y6WtnGRc-116" edge="1">
          <mxGeometry width="50" height="50" relative="1" as="geometry">
            <mxPoint x="160.0000000000001" y="3640" as="sourcePoint" />
            <mxPoint x="190" y="3440" as="targetPoint" />
          </mxGeometry>
        </mxCell>
        <mxCell id="IfjscKfoYPz0y6WtnGRc-135" value="" style="shape=umlLifeline;participant=umlControl;perimeter=lifelinePerimeter;whiteSpace=wrap;html=1;container=1;collapsible=0;recursiveResize=0;verticalAlign=top;spacingTop=36;outlineConnect=0;sketch=0;strokeWidth=1;" parent="1" vertex="1">
          <mxGeometry x="290" y="3340" width="60" height="300" as="geometry" />
        </mxCell>
        <mxCell id="IfjscKfoYPz0y6WtnGRc-136" value="gate way" style="text;html=1;strokeColor=#d79b00;fillColor=#ffe6cc;align=center;verticalAlign=middle;whiteSpace=wrap;rounded=0;sketch=0;" parent="IfjscKfoYPz0y6WtnGRc-135" vertex="1">
          <mxGeometry x="2.5" y="10" width="55" height="20" as="geometry" />
        </mxCell>
        <mxCell id="IfjscKfoYPz0y6WtnGRc-138" value="" style="html=1;points=[];perimeter=orthogonalPerimeter;sketch=0;strokeWidth=1;" parent="IfjscKfoYPz0y6WtnGRc-135" vertex="1">
          <mxGeometry x="25" y="80" width="10" height="40" as="geometry" />
        </mxCell>
        <mxCell id="IfjscKfoYPz0y6WtnGRc-145" value="" style="endArrow=classic;html=1;rounded=0;strokeWidth=1;" parent="IfjscKfoYPz0y6WtnGRc-135" edge="1">
          <mxGeometry width="50" height="50" relative="1" as="geometry">
            <mxPoint x="25.000000000000114" y="120" as="sourcePoint" />
            <mxPoint x="160" y="120" as="targetPoint" />
          </mxGeometry>
        </mxCell>
        <mxCell id="IfjscKfoYPz0y6WtnGRc-137" value="" style="endArrow=classic;html=1;rounded=0;strokeWidth=1;" parent="1" target="IfjscKfoYPz0y6WtnGRc-135" edge="1">
          <mxGeometry width="50" height="50" relative="1" as="geometry">
            <mxPoint x="160" y="3420" as="sourcePoint" />
            <mxPoint x="220" y="3420" as="targetPoint" />
          </mxGeometry>
        </mxCell>
        <mxCell id="IfjscKfoYPz0y6WtnGRc-139" value="dowload account info" style="text;html=1;strokeColor=none;fillColor=none;align=center;verticalAlign=middle;whiteSpace=wrap;rounded=0;sketch=0;" parent="1" vertex="1">
          <mxGeometry x="180.5" y="3400" width="116" height="20" as="geometry" />
        </mxCell>
        <mxCell id="IfjscKfoYPz0y6WtnGRc-142" value="" style="shape=umlLifeline;participant=umlControl;perimeter=lifelinePerimeter;whiteSpace=wrap;html=1;container=1;collapsible=0;recursiveResize=0;verticalAlign=top;spacingTop=36;outlineConnect=0;sketch=0;strokeWidth=1;" parent="1" vertex="1">
          <mxGeometry x="425.75" y="3340" width="60.5" height="300" as="geometry" />
        </mxCell>
        <mxCell id="IfjscKfoYPz0y6WtnGRc-143" value="User-core" style="text;html=1;strokeColor=#b85450;fillColor=#f8cecc;align=center;verticalAlign=middle;whiteSpace=wrap;rounded=0;sketch=0;" parent="IfjscKfoYPz0y6WtnGRc-142" vertex="1">
          <mxGeometry x="0.5" y="10" width="60" height="20" as="geometry" />
        </mxCell>
        <mxCell id="IfjscKfoYPz0y6WtnGRc-144" value="" style="html=1;points=[];perimeter=orthogonalPerimeter;sketch=0;strokeWidth=1;" parent="IfjscKfoYPz0y6WtnGRc-142" vertex="1">
          <mxGeometry x="25.5" y="125" width="10" height="50" as="geometry" />
        </mxCell>
        <mxCell id="IfjscKfoYPz0y6WtnGRc-146" value="query from DB" style="text;html=1;strokeColor=none;fillColor=none;align=center;verticalAlign=middle;whiteSpace=wrap;rounded=0;sketch=0;" parent="1" vertex="1">
          <mxGeometry x="488.5" y="3484" width="62" height="23" as="geometry" />
        </mxCell>
        <mxCell id="IfjscKfoYPz0y6WtnGRc-148" value="forwrad，check token" style="text;html=1;strokeColor=none;fillColor=none;align=center;verticalAlign=middle;whiteSpace=wrap;rounded=0;sketch=0;" parent="1" vertex="1">
          <mxGeometry x="340" y="3420" width="80" height="30" as="geometry" />
        </mxCell>
        <mxCell id="IfjscKfoYPz0y6WtnGRc-152" value="" style="shape=umlLifeline;participant=umlControl;perimeter=lifelinePerimeter;whiteSpace=wrap;html=1;container=1;collapsible=0;recursiveResize=0;verticalAlign=top;spacingTop=36;outlineConnect=0;sketch=0;strokeWidth=1;" parent="1" vertex="1">
          <mxGeometry x="563" y="3340" width="54" height="300" as="geometry" />
        </mxCell>
        <mxCell id="IfjscKfoYPz0y6WtnGRc-153" value="MySQL" style="text;html=1;strokeColor=#6c8ebf;fillColor=#dae8fc;align=center;verticalAlign=middle;whiteSpace=wrap;rounded=0;sketch=0;" parent="IfjscKfoYPz0y6WtnGRc-152" vertex="1">
          <mxGeometry x="4" y="10" width="50" height="20" as="geometry" />
        </mxCell>
        <mxCell id="IfjscKfoYPz0y6WtnGRc-155" value="" style="html=1;points=[];perimeter=orthogonalPerimeter;sketch=0;strokeWidth=1;" parent="IfjscKfoYPz0y6WtnGRc-152" vertex="1">
          <mxGeometry x="22" y="175" width="10" height="50" as="geometry" />
        </mxCell>
        <mxCell id="IfjscKfoYPz0y6WtnGRc-156" value="" style="endArrow=classic;html=1;rounded=0;strokeWidth=1;" parent="1" edge="1">
          <mxGeometry width="50" height="50" relative="1" as="geometry">
            <mxPoint x="457" y="3520" as="sourcePoint" />
            <mxPoint x="580" y="3520" as="targetPoint" />
          </mxGeometry>
        </mxCell>
        <mxCell id="IfjscKfoYPz0y6WtnGRc-157" value="" style="endArrow=none;html=1;rounded=0;strokeWidth=1;startArrow=classic;startFill=1;endFill=0;" parent="1" edge="1">
          <mxGeometry width="50" height="50" relative="1" as="geometry">
            <mxPoint x="457.5" y="3560" as="sourcePoint" />
            <mxPoint x="580.5" y="3560" as="targetPoint" />
          </mxGeometry>
        </mxCell>
        <mxCell id="IfjscKfoYPz0y6WtnGRc-158" value="" style="endArrow=none;html=1;rounded=0;strokeWidth=1;startArrow=classic;startFill=1;endFill=0;" parent="1" edge="1">
          <mxGeometry width="50" height="50" relative="1" as="geometry">
            <mxPoint x="320.5" y="3580" as="sourcePoint" />
            <mxPoint x="455.5" y="3580" as="targetPoint" />
          </mxGeometry>
        </mxCell>
        <mxCell id="IfjscKfoYPz0y6WtnGRc-159" value="" style="endArrow=none;html=1;rounded=0;strokeWidth=1;endFill=0;startArrow=classic;startFill=1;" parent="1" edge="1">
          <mxGeometry width="50" height="50" relative="1" as="geometry">
            <mxPoint x="161.2500000000001" y="3610" as="sourcePoint" />
            <mxPoint x="320.7500000000002" y="3610" as="targetPoint" />
          </mxGeometry>
        </mxCell>
        <mxCell id="3TqyeytohlLbs6trgbw_-1" value="&lt;div style=&quot;text-align: left;&quot;&gt;query from DB，and&amp;nbsp; generate&amp;nbsp;&lt;/div&gt;&lt;div style=&quot;text-align: left;&quot;&gt;excel&lt;/div&gt;" style="shape=document;whiteSpace=wrap;html=1;boundedLbl=1;" parent="1" vertex="1">
          <mxGeometry x="457" y="3650" width="174" height="120" as="geometry" />
        </mxCell>
        <mxCell id="3TqyeytohlLbs6trgbw_-2" value="check is the token right，is the token wrong，throw exception." style="shape=document;whiteSpace=wrap;html=1;boundedLbl=1;" parent="1" vertex="1">
          <mxGeometry x="316.75" y="3650" width="126.5" height="120" as="geometry" />
        </mxCell>
        <mxCell id="t-Dlz3Z6XvojqKJS2hRi-6" style="edgeStyle=orthogonalEdgeStyle;rounded=0;orthogonalLoop=1;jettySize=auto;html=1;exitX=0.5;exitY=1;exitDx=0;exitDy=0;entryX=0.5;entryY=0;entryDx=0;entryDy=0;" edge="1" parent="1" source="t-Dlz3Z6XvojqKJS2hRi-2" target="t-Dlz3Z6XvojqKJS2hRi-5">
          <mxGeometry relative="1" as="geometry" />
        </mxCell>
        <mxCell id="t-Dlz3Z6XvojqKJS2hRi-2" value="query from DB&amp;nbsp;" style="rounded=0;whiteSpace=wrap;html=1;sketch=1;fillColor=#f8cecc;strokeColor=#b85450;" vertex="1" parent="1">
          <mxGeometry x="303.5" y="2335" width="141" height="60" as="geometry" />
        </mxCell>
        <mxCell id="t-Dlz3Z6XvojqKJS2hRi-7" style="edgeStyle=orthogonalEdgeStyle;rounded=0;orthogonalLoop=1;jettySize=auto;html=1;exitX=0.5;exitY=1;exitDx=0;exitDy=0;entryX=1;entryY=0.5;entryDx=0;entryDy=0;" edge="1" parent="1" source="t-Dlz3Z6XvojqKJS2hRi-5" target="IfjscKfoYPz0y6WtnGRc-69">
          <mxGeometry relative="1" as="geometry" />
        </mxCell>
        <mxCell id="t-Dlz3Z6XvojqKJS2hRi-5" value="generate file" style="rounded=0;whiteSpace=wrap;html=1;sketch=1;fillColor=#f8cecc;strokeColor=#b85450;" vertex="1" parent="1">
          <mxGeometry x="302.25" y="2430" width="141" height="60" as="geometry" />
        </mxCell>
        <mxCell id="t-Dlz3Z6XvojqKJS2hRi-18" style="rounded=0;orthogonalLoop=1;jettySize=auto;html=1;entryX=0.02;entryY=0.6;entryDx=0;entryDy=0;entryPerimeter=0;" edge="1" parent="1" source="t-Dlz3Z6XvojqKJS2hRi-13" target="xnFeZmKceQ85xTi5FCpg-3">
          <mxGeometry relative="1" as="geometry" />
        </mxCell>
        <mxCell id="t-Dlz3Z6XvojqKJS2hRi-20" style="edgeStyle=none;rounded=0;orthogonalLoop=1;jettySize=auto;html=1;entryX=0;entryY=0.5;entryDx=0;entryDy=0;" edge="1" parent="1" source="t-Dlz3Z6XvojqKJS2hRi-13" target="t-Dlz3Z6XvojqKJS2hRi-16">
          <mxGeometry relative="1" as="geometry" />
        </mxCell>
        <mxCell id="t-Dlz3Z6XvojqKJS2hRi-13" value="User" style="shape=umlActor;verticalLabelPosition=bottom;verticalAlign=top;html=1;outlineConnect=0;sketch=0;strokeWidth=1;" vertex="1" parent="1">
          <mxGeometry x="60" y="230" width="40" height="90" as="geometry" />
        </mxCell>
        <mxCell id="t-Dlz3Z6XvojqKJS2hRi-25" style="edgeStyle=none;rounded=0;orthogonalLoop=1;jettySize=auto;html=1;exitX=1;exitY=0.5;exitDx=0;exitDy=0;entryX=0;entryY=0.5;entryDx=0;entryDy=0;dashed=1;" edge="1" parent="1" source="t-Dlz3Z6XvojqKJS2hRi-16" target="t-Dlz3Z6XvojqKJS2hRi-24">
          <mxGeometry relative="1" as="geometry" />
        </mxCell>
        <mxCell id="t-Dlz3Z6XvojqKJS2hRi-27" style="edgeStyle=none;rounded=0;orthogonalLoop=1;jettySize=auto;html=1;exitX=1;exitY=0.5;exitDx=0;exitDy=0;entryX=0;entryY=0.5;entryDx=0;entryDy=0;dashed=1;" edge="1" parent="1" source="t-Dlz3Z6XvojqKJS2hRi-16" target="t-Dlz3Z6XvojqKJS2hRi-26">
          <mxGeometry relative="1" as="geometry" />
        </mxCell>
        <mxCell id="t-Dlz3Z6XvojqKJS2hRi-29" style="edgeStyle=none;rounded=0;orthogonalLoop=1;jettySize=auto;html=1;exitX=1;exitY=0.5;exitDx=0;exitDy=0;entryX=0;entryY=0.5;entryDx=0;entryDy=0;dashed=1;" edge="1" parent="1" source="t-Dlz3Z6XvojqKJS2hRi-16" target="t-Dlz3Z6XvojqKJS2hRi-28">
          <mxGeometry relative="1" as="geometry" />
        </mxCell>
        <mxCell id="t-Dlz3Z6XvojqKJS2hRi-16" value="Account Manage" style="ellipse;whiteSpace=wrap;html=1;sketch=0;strokeWidth=1;" vertex="1" parent="1">
          <mxGeometry x="323.88" y="340" width="112.25" height="80" as="geometry" />
        </mxCell>
        <mxCell id="t-Dlz3Z6XvojqKJS2hRi-22" value="edit user info" style="ellipse;whiteSpace=wrap;html=1;sketch=0;" vertex="1" parent="1">
          <mxGeometry x="566" y="250" width="94" height="50" as="geometry" />
        </mxCell>
        <mxCell id="t-Dlz3Z6XvojqKJS2hRi-24" value="query account info" style="ellipse;whiteSpace=wrap;html=1;sketch=0;" vertex="1" parent="1">
          <mxGeometry x="566" y="320" width="94" height="50" as="geometry" />
        </mxCell>
        <mxCell id="t-Dlz3Z6XvojqKJS2hRi-26" value="upload account&lt;br&gt;info" style="ellipse;whiteSpace=wrap;html=1;sketch=0;" vertex="1" parent="1">
          <mxGeometry x="566" y="390" width="94" height="50" as="geometry" />
        </mxCell>
        <mxCell id="t-Dlz3Z6XvojqKJS2hRi-28" value="download account info" style="ellipse;whiteSpace=wrap;html=1;sketch=0;" vertex="1" parent="1">
          <mxGeometry x="570" y="460" width="94" height="50" as="geometry" />
        </mxCell>
      </root>
    </mxGraphModel>
  </diagram>
</mxfile>
